{"title":"WWE-TNA-ROH AAW Epic - 10 Year Annversary 3.21.2014-3vil","uid":10085845,"size":2607994181,"categoryP":"video","categoryS":"tv_shows","magnet":"?xt=urn:btih:73129e227b8daeabbe59d0e3a80bcaae6b09427e&amp;dn=WWE-TNA-ROH+AAW+Epic+-+10+Year+Annversary+3.21.2014-3vil&amp;tr=udp%3A%2F%2Ftracker.openbittorrent.com%3A80&amp;tr=udp%3A%2F%2Fopen.demonii.com%3A1337&amp;tr=udp%3A%2F%2Ftracker.coppersurfer.tk%3A6969&amp;tr=udp%3A%2F%2Fexodus.desync.com%3A6969","seeders":1,"leechers":2,"uploader":"qtleewest","files":-1,"time":1399089888,"description":"AAW.Epic-10.Year.Anniversay.3.21.2014-3vil.mp4\n\nAAW &quot;EPIC: 10 Year Anniversary&quot;  (All American Wrestling)\nMarch 21, 2014 \nBerwyn, IL \n\n1. Christian Faith vs. CJ Esparza vs. Davey Vega vs. Ty Colton \n2. Heidi Lovelace vs. Seleziya Sparks \n3. The Clash (Austin Mannix &amp; Cameron Skyy) &amp; Matt Cage vs. \n    Junthai Miller &amp; Kung Fu Manchu (Louis Lyndon &amp; Marion Fontaine) \n4. Justice Jones vs. The SeaMan \n5. Knight Wagner vs. Marek Brave \n6. Alex Shelley vs. Silas Young \n7. Berwyn Street Fight: \n    Dan Lawrence &amp; Markus Crane vs. Ryan Boz &amp; Tony Rican \n8. AAW Tag Team Championship: \n    Men of the Year (Ethan Page &amp; Michael Elgin) vs. \n      OI4K (Dave &amp; Jake Crist) \n9. Arik Cannon vs. Kyle O'Reilly \n10. Colt Cabana &amp; Jimmy Jacobs vs. Eddie Kingston &amp; Shane Hollister \n\n-Video \nID                                      : 1 \nFormat                                  : AVC \nDuration                                : 2h 59mn \nBit rate                                : 1 800 Kbps \nWidth                                    : 720 pixels \nHeight                                  : 480 pixels \nDisplay aspect ratio                    : 16:9 \nFrame rate mode                          : Variable \nFrame rate                              : 29.970 fps \nStandard                                : NTSC \nColor space                              : YUV \nChroma subsampling                      : 4:2:0 \nBit depth                                : 8 bits \nScan type                                : Progressive \nBits/(Pixel*Frame)                      : 0.174 \nStream size                              : 2.26 GiB (93%) \nWriting library                          : x264 \nColor primaries                          : BT.601 NTSC \nTransfer characteristics                : BT.709 \nMatrix coefficients                      : BT.601 \n\n-Audio \nID                                      : 2 \nFormat                                  : AAC \nFormat profile                          : LC \nBit rate mode                            : Variable \nBit rate                                : 132 Kbps \nMaximum bit rate                        : 214 Kbps \nChannel(s)                              : 2 channels \nChannel positions                        : Front: L R \nSampling rate                            : 48.0 KHz \nCompression mode                        : Lossy \nDelay relative to video                  : 67ms \nStream size                              : 169 MiB (7%) \nLanguage                                : English \n","torrent":{"xt":"urn:btih:73129e227b8daeabbe59d0e3a80bcaae6b09427e","amp;dn":"WWE-TNA-ROH+AAW+Epic+-+10+Year+Annversary+3.21.2014-3vil","amp;tr":["udp%3A%2F%2Ftracker.openbittorrent.com%3A80","udp%3A%2F%2Fopen.demonii.com%3A1337","udp%3A%2F%2Ftracker.coppersurfer.tk%3A6969","udp%3A%2F%2Fexodus.desync.com%3A6969"],"infoHash":"73129e227b8daeabbe59d0e3a80bcaae6b09427e","infoHashBuffer":{"type":"Buffer","data":[115,18,158,34,123,141,174,171,190,89,208,227,168,11,202,174,107,9,66,126]},"announce":[],"urlList":[]}}